<?xml version="1.0" encoding="iso-8859-1"?>
<!-- Generator: Adobe Illustrator 19.0.0, SVG Export Plug-In . SVG Version: 6.00 Build 0)  -->
<svg version="1.1" id="Capa_1" xmlns="http://www.w3.org/2000/svg" xmlns:xlink="http://www.w3.org/1999/xlink" x="0px" y="0px"
	 viewBox="0 0 512.001 512.001" style="enable-background:new 0 0 512.001 512.001;" xml:space="preserve">
<linearGradient id="SVGID_1_" gradientUnits="userSpaceOnUse" x1="8.586840e-004" y1="257.9923" x2="512.0104" y2="257.9923" gradientTransform="matrix(1 0 0 -1 -8.586689e-004 513.9881)">
	<stop  offset="0" style="stop-color:#80D8FF"/>
	<stop  offset="1" style="stop-color:#EA80FC"/>
</linearGradient>
<path style="fill:url(#SVGID_1_);" d="M458.854,435.997H53.146c-7.851,0-14.977-4.594-18.217-11.745
	c-46.556-102.741-46.588-233.692,0-336.504c3.24-7.151,10.366-11.745,18.217-11.745h405.709c7.851,0,14.977,4.594,18.217,11.745
	c46.556,102.741,46.588,233.692,0,336.504C473.83,431.403,466.706,435.997,458.854,435.997z M66.324,395.998h379.352
	c35.048-86.424,35.048-193.571,0-279.995H66.324C31.275,202.426,31.275,309.573,66.324,395.998z M194.738,344.059
	c-6.188-3.572-10-10.175-10-17.32V185.262c0-7.146,3.812-13.748,10-17.32c6.188-3.572,13.813-3.572,20,0l122.523,70.739
	c6.188,3.572,10,10.175,10,17.32c0,7.146-3.812,13.748-10,17.32l-122.523,70.739C208.548,347.633,200.927,347.632,194.738,344.059z
	 M224.738,219.901v72.198l62.524-36.099L224.738,219.901z"/>
<g>
</g>
<g>
</g>
<g>
</g>
<g>
</g>
<g>
</g>
<g>
</g>
<g>
</g>
<g>
</g>
<g>
</g>
<g>
</g>
<g>
</g>
<g>
</g>
<g>
</g>
<g>
</g>
<g>
</g>
</svg>
