<?xml version="1.0" encoding="iso-8859-1"?>
<!-- Generator: Adobe Illustrator 19.0.0, SVG Export Plug-In . SVG Version: 6.00 Build 0)  -->
<svg version="1.1" id="Capa_1" xmlns="http://www.w3.org/2000/svg" xmlns:xlink="http://www.w3.org/1999/xlink" x="0px" y="0px"
	 viewBox="0 0 512 512" style="enable-background:new 0 0 512 512;" xml:space="preserve">
<linearGradient id="SVGID_1_" gradientUnits="userSpaceOnUse" x1="0" y1="-21.9982" x2="512.0005" y2="-21.9982" gradientTransform="matrix(1 0 0 -1 0 234.0021)">
	<stop  offset="0" style="stop-color:#80D8FF"/>
	<stop  offset="1" style="stop-color:#EA80FC"/>
</linearGradient>
<path style="fill:url(#SVGID_1_);" d="M506.142,451.476L351.361,296.694c-7.49-7.49-19.43-7.777-27.286-0.902l-69.026-69.026
	l59.887-29.25c5.86-2.862,9.956-8.401,10.977-14.843c1.02-6.441-1.164-12.975-5.853-17.508l-63.122-61.023l-12.267-86.936
	c-0.911-6.458-4.913-12.065-10.724-15.026c-5.809-2.96-12.699-2.902-18.459,0.156l-77.542,41.175L51.473,28.314
	c-6.42-1.128-12.992,0.945-17.604,5.556c-4.611,4.611-6.685,11.181-5.556,17.604l15.198,86.472L2.336,215.488
	c-3.059,5.76-3.117,12.649-0.156,18.459c2.961,5.811,8.568,9.813,15.026,10.724l86.936,12.267l61.023,63.122
	c3.798,3.929,9.002,6.099,14.378,6.099c7.607,0,14.602-4.324,17.972-11.223l29.25-59.887l69.026,69.026
	c-6.874,7.856-6.587,19.796,0.902,27.286l154.781,154.781c7.81,7.81,20.473,7.811,28.284,0l13.187-13.187
	c0.002-0.002,0.003-0.003,0.005-0.005s0.003-0.003,0.005-0.005l13.187-13.187C513.953,471.949,513.953,459.286,506.142,451.476z
	 M174.094,271.747l-45.972-47.553c-3.097-3.203-7.174-5.28-11.585-5.903l-65.493-9.242l31.02-58.416
	c2.089-3.935,2.805-8.454,2.034-12.842l-11.45-65.143l65.143,11.45c4.39,0.77,8.907,0.055,12.842-2.034l58.416-31.02l9.242,65.493
	c0.623,4.411,2.7,8.488,5.903,11.585l47.553,45.972l-59.432,29.027c-4.018,1.955-7.292,5.299-9.194,9.194L174.094,271.747z"/>
<g>
</g>
<g>
</g>
<g>
</g>
<g>
</g>
<g>
</g>
<g>
</g>
<g>
</g>
<g>
</g>
<g>
</g>
<g>
</g>
<g>
</g>
<g>
</g>
<g>
</g>
<g>
</g>
<g>
</g>
</svg>
