<?xml version="1.0" encoding="iso-8859-1"?>
<!-- Generator: Adobe Illustrator 19.0.0, SVG Export Plug-In . SVG Version: 6.00 Build 0)  -->
<svg version="1.1" id="Capa_1" xmlns="http://www.w3.org/2000/svg" xmlns:xlink="http://www.w3.org/1999/xlink" x="0px" y="0px"
	 viewBox="0 0 512 512" style="enable-background:new 0 0 512 512;" xml:space="preserve">
<path style="fill:#3980a8;" d="M506.143,100.255L411.745,5.858c-7.809-7.811-20.473-7.811-28.283,0L34.156,355.163
	c-2.613,2.613-4.516,6.057-5.346,9.649L0.526,487.493c-3.31,14.366,9.579,27.303,23.981,23.981l122.681-28.283
	c3.513-0.811,6.963-2.664,9.649-5.347l349.305-349.306C513.949,120.732,513.951,108.064,506.143,100.255z M151.773,426.342
	c-13.639-28.181-37.933-52.475-66.114-66.114L303.206,142.68l66.114,66.114L151.773,426.342z M63.136,393.971
	c23.759,9.689,45.206,31.134,54.894,54.894l-71.343,16.448L63.136,393.971z M397.603,180.511l-66.113-66.115l66.113-66.113
	l66.114,66.114L397.603,180.511z"/>
</svg>
